<?xml version="1.0" encoding="UTF-8" standalone="no"?><!DOCTYPE svg PUBLIC "-//W3C//DTD SVG 1.1//EN" "http://www.w3.org/Graphics/SVG/1.1/DTD/svg11.dtd"><svg width="100%" height="100%" viewBox="0 0 950 450" version="1.1" xmlns="http://www.w3.org/2000/svg" xmlns:xlink="http://www.w3.org/1999/xlink" xml:space="preserve" xmlns:serif="http://www.serif.com/" style="fill-rule:evenodd;clip-rule:evenodd;stroke-linejoin:round;stroke-miterlimit:2;"><path d="M955.478,450.221l-951.789,0c0,0 -13.316,-299.459 10.651,-338.46c96.03,-156.265 268.575,-106.802 335.647,-94.947c95.979,16.965 284.086,85.199 380.912,87.533c134.671,3.246 225.23,-94.393 225.23,-94.393l-0.651,440.267Z" style="fill:#e41a28;fill-rule:nonzero;"/><path d="M955.478,450.221l-951.789,0c0,0 -13.315,-255.175 10.651,-294.175c96.031,-156.265 268.576,-106.804 335.648,-94.948c95.978,16.965 284.086,85.2 380.911,87.534c134.672,3.246 225.23,-94.394 225.23,-94.394l-0.651,395.983Z" style="fill:#c21c20;fill-rule:nonzero;"/></svg>
