<?xml version="1.0" encoding="UTF-8" standalone="no"?><!DOCTYPE svg PUBLIC "-//W3C//DTD SVG 1.1//EN" "http://www.w3.org/Graphics/SVG/1.1/DTD/svg11.dtd"><svg width="100%" height="100%" viewBox="0 0 359 195" version="1.1" xmlns="http://www.w3.org/2000/svg" xmlns:xlink="http://www.w3.org/1999/xlink" xml:space="preserve" xmlns:serif="http://www.serif.com/" style="fill-rule:evenodd;clip-rule:evenodd;stroke-linejoin:round;stroke-miterlimit:2;"><path d="M211.512,3.602c-36.119,7.138 -64.259,32.079 -77.162,63.893l-1.692,-0.055c12.995,-32.552 41.674,-58.114 78.545,-65.401c53.583,-10.59 105.867,21.067 122.331,71.784l-1.696,-0.053c-16.419,-49.639 -67.736,-80.561 -120.326,-70.168" style="fill:#f1d28d;fill-rule:nonzero;"/><path d="M212.534,8.644c-31.269,6.18 -56.263,26.343 -69.834,52.693l-0.971,-0.033c13.646,-26.758 38.949,-47.259 70.635,-53.521c47.772,-9.441 94.468,16.519 112.869,59.624l-0.978,-0.032c-18.357,-42.502 -64.502,-68.063 -111.721,-58.731" style="fill:#f1d28d;fill-rule:nonzero;"/><path d="M72.673,185.299c-0.717,2.372 -1.931,3.379 -4.138,3.379c-3.007,0 -4.331,-1.53 -4.331,-5.104c0,-3.572 1.324,-5.103 4.331,-5.103c2.455,0 3.655,1.007 4.138,3.38l-0.772,0c-0.483,-1.946 -1.407,-2.691 -3.366,-2.691c-2.455,0 -3.518,1.284 -3.518,4.414c0,3.132 1.049,4.414 3.518,4.414c1.765,0 2.69,-0.73 3.366,-2.689l0.772,0Z" style="fill:#2d2d2d;fill-rule:nonzero;"/><path d="M76.796,183.574c0,3.132 1.062,4.414 3.628,4.414c2.566,0 3.642,-1.282 3.642,-4.414c0,-3.131 -1.076,-4.414 -3.642,-4.414c-2.566,0 -3.628,1.283 -3.628,4.414m8.07,0c0,3.573 -1.324,5.104 -4.442,5.104c-3.118,0 -4.442,-1.531 -4.442,-5.104c0,-3.572 1.324,-5.104 4.442,-5.104c3.118,0 4.442,1.532 4.442,5.104" style="fill:#2d2d2d;fill-rule:nonzero;"/><path d="M95.872,178.746l0,9.656l-0.966,0l-5.558,-8.662l0,8.662l-0.759,0l0,-9.656l0.979,0l5.559,8.663l0,-8.663l0.745,0Z" style="fill:#2d2d2d;fill-rule:nonzero;"/><path d="M100.795,179.395l0,3.614l4.952,0l0,0.649l-4.952,0l0,4.745l-0.786,0l0,-9.656l6.29,0l0,0.648l-5.504,0Z" style="fill:#2d2d2d;fill-rule:nonzero;"/><path d="M110.533,179.395l0,3.614l4.952,0l0,0.649l-4.952,0l0,4.096l5.504,0l0,0.649l-6.29,0l0,-9.656l6.29,0l0,0.648l-5.504,0Z" style="fill:#2d2d2d;fill-rule:nonzero;"/><rect x="119.622" y="178.746" width="0.786" height="9.656" style="fill:#2d2d2d;"/><path d="M130.67,179.437l-3.09,0l0,8.966l-0.772,0l0,-8.966l-3.09,0l0,-0.69l6.952,0l0,0.69Z" style="fill:#2d2d2d;fill-rule:nonzero;"/><path d="M133.994,185.243l4.193,0l-2.083,-5.724l-2.11,5.724Zm4.428,0.621l-4.649,0l-0.938,2.538l-0.786,0l3.559,-9.656l1.048,0l3.504,9.656l-0.814,0l-0.924,-2.538Z" style="fill:#2d2d2d;fill-rule:nonzero;"/><path d="M147.579,184.016c1.738,0 2.455,-0.717 2.455,-2.304c0,-1.613 -0.703,-2.317 -2.455,-2.317l-3.187,0l0,4.621l3.187,0Zm0.276,0.607l-3.463,0l0,3.766l-0.786,0l0,-9.656l4,0c2.249,0 3.201,1.021 3.201,2.966c0,1.641 -0.663,2.58 -2.166,2.855l2.111,3.849l-0.842,0l-2.055,-3.78Z" style="fill:#2d2d2d;fill-rule:nonzero;"/><rect x="154.529" y="178.746" width="0.786" height="9.656" style="fill:#2d2d2d;"/><path d="M160.709,185.243l4.193,0l-2.083,-5.724l-2.11,5.724Zm4.428,0.621l-4.649,0l-0.938,2.538l-0.786,0l3.559,-9.656l1.048,0l3.504,9.656l-0.814,0l-0.924,-2.538Z" style="fill:#2d2d2d;fill-rule:nonzero;"/><path d="M193.707,192.564c-0.275,0.275 -0.906,0.091 -1.41,-0.413c-0.504,-0.504 -0.689,-1.135 -0.413,-1.41c0.275,-0.276 0.907,-0.091 1.411,0.412c0.503,0.504 0.687,1.135 0.412,1.411m-19.024,-15.597l-0.054,-0.023c-1.503,-0.655 -2.922,-1.273 -4.09,-2.393c-0.632,-0.605 -1.098,-1.38 -1.348,-2.241c-0.124,-0.431 -0.172,-0.874 -0.144,-1.306c0.016,0.025 0.035,0.05 0.052,0.075c0.045,0.069 0.095,0.137 0.143,0.206c0.094,0.136 0.193,0.271 0.298,0.407c0.056,0.072 0.112,0.143 0.171,0.215c0.114,0.139 0.234,0.278 0.358,0.415c0.055,0.061 0.108,0.123 0.164,0.183c0.184,0.196 0.374,0.389 0.574,0.576c1.501,1.401 3.195,2.593 4.988,3.856c0.469,0.33 0.942,0.663 1.416,1.002c0.119,0.086 0.238,0.176 0.357,0.263c0.357,0.258 0.714,0.517 1.071,0.787c0.172,0.13 0.341,0.27 0.513,0.403c0.303,0.236 0.607,0.47 0.908,0.719c0.194,0.16 0.385,0.334 0.578,0.5c0.225,0.194 0.45,0.387 0.673,0.59l-0.043,0.043c-1.718,-1.442 -4.623,-3.421 -6.585,-4.277m6.998,3.865l-0.072,0.071c-0.232,-0.212 -0.467,-0.407 -0.701,-0.609c-0.191,-0.164 -0.38,-0.337 -0.572,-0.496c-0.313,-0.258 -0.628,-0.501 -0.942,-0.745c-0.165,-0.128 -0.328,-0.262 -0.492,-0.387c-0.384,-0.291 -0.769,-0.571 -1.153,-0.849c-0.094,-0.068 -0.188,-0.14 -0.282,-0.207c-0.48,-0.344 -0.958,-0.681 -1.432,-1.015c-1.782,-1.252 -3.464,-2.437 -4.944,-3.819c-0.207,-0.193 -0.405,-0.393 -0.594,-0.596c-0.052,-0.055 -0.096,-0.113 -0.146,-0.168c-0.133,-0.149 -0.267,-0.299 -0.387,-0.449c-0.057,-0.071 -0.104,-0.141 -0.157,-0.211c-0.104,-0.138 -0.209,-0.275 -0.302,-0.411c-0.055,-0.082 -0.099,-0.161 -0.15,-0.242c-0.07,-0.114 -0.143,-0.227 -0.205,-0.339c0.132,-0.506 0.374,-0.968 0.709,-1.35l11.822,11.822Zm-10.178,-12.825c0.111,0.061 0.225,0.134 0.337,0.204c0.082,0.051 0.163,0.096 0.245,0.151c0.129,0.087 0.258,0.187 0.387,0.285c0.079,0.059 0.158,0.112 0.237,0.176c0.131,0.105 0.26,0.221 0.39,0.336c0.075,0.067 0.152,0.127 0.227,0.197c0.202,0.188 0.401,0.385 0.593,0.592c1.383,1.479 2.567,3.162 3.82,4.944c0.332,0.471 0.667,0.947 1.01,1.424c0.093,0.13 0.192,0.261 0.287,0.392c0.254,0.349 0.507,0.698 0.772,1.048c0.128,0.17 0.268,0.339 0.4,0.509c0.241,0.31 0.48,0.62 0.734,0.928c0.154,0.186 0.323,0.37 0.482,0.556c0.206,0.239 0.406,0.48 0.622,0.717l-0.07,0.071l-6.284,-6.283l-5.539,-5.539c0.383,-0.335 0.845,-0.577 1.35,-0.708m1.95,0.041c0.862,0.249 1.638,0.716 2.243,1.348c1.154,1.205 1.802,2.691 2.429,4.128c0.87,1.997 2.839,4.9 4.263,6.6l-0.043,0.044c-0.198,-0.217 -0.384,-0.435 -0.573,-0.653c-0.172,-0.201 -0.353,-0.399 -0.519,-0.6c-0.24,-0.291 -0.465,-0.584 -0.693,-0.877c-0.143,-0.182 -0.291,-0.363 -0.43,-0.546c-0.249,-0.329 -0.487,-0.658 -0.726,-0.987c-0.107,-0.147 -0.219,-0.295 -0.325,-0.442c-0.339,-0.473 -0.67,-0.944 -0.999,-1.411c-1.262,-1.794 -2.454,-3.487 -3.856,-4.989c-0.187,-0.2 -0.38,-0.39 -0.576,-0.573c-0.06,-0.057 -0.121,-0.109 -0.182,-0.164c-0.137,-0.124 -0.276,-0.244 -0.416,-0.359c-0.072,-0.058 -0.142,-0.114 -0.214,-0.17c-0.138,-0.106 -0.275,-0.206 -0.412,-0.301c-0.066,-0.047 -0.132,-0.094 -0.198,-0.138c-0.026,-0.017 -0.052,-0.038 -0.078,-0.054c0.433,-0.028 0.874,0.02 1.305,0.144m10.062,12.813l0.51,-0.51l-0.932,-0.932l-0.407,0.408c-1.403,-1.679 -3.327,-4.515 -4.18,-6.469c-0.641,-1.471 -1.304,-2.991 -2.51,-4.251c-0.655,-0.684 -1.495,-1.189 -2.427,-1.46c-0.662,-0.19 -1.35,-0.215 -1.996,-0.08l-0.008,-0.003l-0.076,0.017l-0.538,0.126l0.047,0.024c-0.421,0.161 -0.801,0.399 -1.134,0.695l-0.01,-0.01l-0.147,0.147l-0.148,0.147l0.011,0.011c-0.296,0.332 -0.535,0.713 -0.695,1.134l-0.025,-0.047l-0.125,0.538l-0.018,0.076l0.004,0.008c-0.135,0.646 -0.111,1.333 0.08,1.996c0.27,0.931 0.775,1.77 1.46,2.427c1.222,1.17 2.742,1.832 4.211,2.472l0.054,0.024c1.921,0.838 4.758,2.773 6.454,4.193l-0.408,0.408l0.933,0.931l0.51,-0.51c2.481,2.911 11.945,13.78 13.485,12.099l0.123,-0.123c1.682,-1.54 -9.188,-11.004 -12.098,-13.486" style="fill:#f1d28d;fill-rule:nonzero;"/><path d="M199.854,174.492c-1.546,1.545 -3.703,1.894 -4.819,0.777c-1.118,-1.115 -0.768,-3.273 0.776,-4.819c0.022,-0.02 0.043,-0.037 0.063,-0.056l0.069,0.067c-0.97,1.427 -1.07,3.096 -0.133,4.033c0.937,0.937 2.607,0.837 4.033,-0.133l0.068,0.068c-0.021,0.021 -0.036,0.042 -0.057,0.063m-20.713,17.669c-0.505,0.504 -1.136,0.688 -1.411,0.413c-0.275,-0.275 -0.091,-0.907 0.413,-1.411c0.502,-0.503 1.135,-0.688 1.41,-0.412c0.275,0.275 0.09,0.907 -0.412,1.41m23.369,-21.758c-0.149,-0.64 -0.466,-1.222 -0.927,-1.682c-0.46,-0.461 -1.042,-0.778 -1.683,-0.927c-0.621,-0.145 -1.299,-0.131 -1.975,0.064c-0.863,0.25 -1.689,0.73 -2.335,1.404c-1.157,1.209 -1.814,2.687 -2.469,4.189c-0.791,1.815 -2.544,4.466 -3.959,6.218c-2.626,2.255 -15.075,13.098 -13.339,14.688l0.123,0.123c1.59,1.736 12.44,-10.72 14.691,-13.342c1.749,-1.415 4.387,-3.179 6.201,-3.97c1.502,-0.655 2.995,-1.297 4.203,-2.456c0.674,-0.645 1.155,-1.471 1.405,-2.334c0.195,-0.676 0.208,-1.353 0.064,-1.975" style="fill:#f1d28d;fill-rule:nonzero;"/><path d="M205.973,185.242l4.193,0l-2.083,-5.725l-2.11,5.725Zm4.428,0.621l-4.649,0l-0.938,2.538l-0.786,0l3.558,-9.655l1.049,0l3.504,9.655l-0.814,0l-0.924,-2.538Z" style="fill:#2d2d2d;fill-rule:nonzero;"/><path d="M219.559,184.015c1.737,0 2.455,-0.717 2.455,-2.304c0,-1.613 -0.704,-2.317 -2.455,-2.317l-3.187,0l0,4.621l3.187,0Zm0.275,0.607l-3.462,0l0,3.766l-0.786,0l0,-9.656l4,0c2.248,0 3.201,1.021 3.201,2.966c0,1.641 -0.663,2.58 -2.166,2.855l2.11,3.849l-0.841,0l-2.056,-3.78Z" style="fill:#2d2d2d;fill-rule:nonzero;"/><path d="M232.634,179.436l-3.09,0l0,8.966l-0.772,0l0,-8.966l-3.09,0l0,-0.689l6.952,0l0,0.689Z" style="fill:#2d2d2d;fill-rule:nonzero;"/><path d="M236.73,179.394l0,3.614l4.952,0l0,0.649l-4.952,0l0,4.096l5.503,0l0,0.649l-6.289,0l0,-9.655l6.289,0l0,0.647l-5.503,0Z" style="fill:#2d2d2d;fill-rule:nonzero;"/><path d="M252.357,185.822c0,2 -1.035,2.855 -3.477,2.855c-2.441,0 -3.475,-0.911 -3.475,-3.035l0.718,0c0,1.725 0.785,2.414 2.757,2.414c1.959,0 2.732,-0.621 2.732,-2.138c0,-2.993 -6.069,-1.145 -6.069,-4.593c0,-2 0.993,-2.856 3.337,-2.856c2.346,0 3.338,0.911 3.338,3.035l-0.715,0c0,-1.71 -0.76,-2.413 -2.623,-2.413c-1.846,0 -2.591,0.606 -2.591,2.137c0,2.8 6.069,0.98 6.069,4.594" style="fill:#2d2d2d;fill-rule:nonzero;"/><path d="M257.06,185.242l4.193,0l-2.083,-5.725l-2.11,5.725Zm4.428,0.621l-4.649,0l-0.938,2.538l-0.786,0l3.559,-9.655l1.048,0l3.504,9.655l-0.814,0l-0.924,-2.538Z" style="fill:#2d2d2d;fill-rule:nonzero;"/><path d="M273.955,178.746l0,9.655l-0.965,0l-5.559,-8.663l0,8.663l-0.759,0l0,-9.655l0.979,0l5.56,8.662l0,-8.662l0.744,0Z" style="fill:#2d2d2d;fill-rule:nonzero;"/><path d="M279.348,185.242l4.193,0l-2.083,-5.725l-2.11,5.725Zm4.428,0.621l-4.649,0l-0.938,2.538l-0.786,0l3.558,-9.655l1.049,0l3.504,9.655l-0.814,0l-0.924,-2.538Z" style="fill:#2d2d2d;fill-rule:nonzero;"/><path d="M294.728,188.402l-5.738,0l0,-9.655l0.786,0l0,8.966l4.952,0l0,0.689Z" style="fill:#2d2d2d;fill-rule:nonzero;"/><path d="M67.791,62.253c0,0 7.432,8.637 17.776,8.637c7.131,0 25.61,-8.236 25.61,-32.841c0,-24.706 -25.911,-29.225 -35.251,-29.225c-32.841,0 -52.124,24.405 -52.124,41.879c0,35.854 48.207,40.072 48.207,67.791c0,13.257 -11.55,23.3 -25.108,23.3c-13.256,0 -21.592,-7.934 -21.592,-17.877c0,-17.073 19.182,-29.326 19.182,-29.326c0,0 -44.491,-8.034 -44.491,29.326c0,28.924 30.833,34.95 45.294,34.95c39.168,0 49.312,-27.518 49.312,-39.771c0,-37.171 -47.906,-48.608 -47.906,-72.611c0,-13.558 16.27,-25.61 28.021,-25.61c14.361,0 17.895,11.896 11.348,22.698c-5.966,9.843 -18.278,18.68 -18.278,18.68" style="fill:#e52129;fill-rule:nonzero;"/><path d="M244.555,43.539c17.073,19.685 -32.94,64.677 -32.94,64.677c0,0 22.309,-76.934 32.94,-64.677m-96.212,74.921c-0.602,3.767 -8.587,21.392 -16.42,21.392c-9.19,0 -10.621,-14.812 -6.88,-27.618c3.917,-13.408 15.918,-25.861 21.944,-24.807c12.344,2.161 1.959,27.267 1.356,31.033m202.468,-20.337c0,0 -16.571,42.03 -29.527,42.03c-17.475,0 9.441,-58.261 9.441,-58.261c0,0 -21.794,-14.802 -31.134,20.901c-0.687,2.628 -8.436,37.36 -20.89,37.36c-15.465,0 -5.595,-22.339 -2.008,-32.037c1.356,-3.666 10.846,-26.715 10.846,-26.715c0,0 -20.287,-15.767 -29.927,17.174c-0.614,2.095 -11.651,40.976 -31.536,40.976c-8.637,0 -12.377,-15.743 -5.021,-23.099c3.213,-3.214 40.573,-38.767 38.766,-69.297c-0.469,-7.92 -4.67,-17.074 -15.869,-17.074c-32.037,0 -45.63,76.614 -46.348,80.696c-1.456,8.286 -7.884,29.778 -22.547,29.778c-13.381,0 -10.692,-15.008 -6.166,-29.647c0.125,-0.405 0.344,-1.188 0.344,-1.188c2.147,-7.145 3.142,-14.368 2.18,-21.177c-1.034,-7.316 -7.05,-15.079 -17.541,-15.972c-29.504,-2.512 -52.834,22.811 -52.834,55.079c0,14.964 9.491,29.978 22.798,29.978c14.713,0 25.308,-16.068 25.308,-16.068c0,0 2.662,16.068 17.074,16.068c21.09,0 32.138,-25.007 32.138,-25.007c0,0 4.518,25.007 19.885,25.007c21.09,0 32.539,-23.501 32.539,-23.501c0,0 3.917,23.501 21.894,23.501c14.261,0 23.099,-18.278 23.099,-18.278c0,0 4.268,18.278 17.475,18.278c28.673,0 44.99,-53.225 45.395,-54.684c1.506,-5.424 -7.834,-4.821 -7.834,-4.821" style="fill:#e52129;fill-rule:nonzero;"/><path d="M299.563,76.236c2.262,1.442 13.982,-8.475 13.657,-9.534c-1.639,-5.349 -6.796,-4.895 -10.938,1.163c-1.613,2.359 -4.055,7.518 -2.719,8.371" style="fill:#e52129;fill-rule:nonzero;"/></svg>