<?xml version="1.0" encoding="UTF-8"?>
<svg version="1.1" xmlns="http://www.w3.org/2000/svg" viewBox="0 0 32 32">
<title>gift</title>
<path d="M30.5 10h-4.5q1-1.313 1-3 0-2.063-1.469-3.531t-3.563-1.469-3.594 1.438q-1.25 1.188-2.313 3.563-2-5-6.063-5-2.063 0-3.531 1.469t-1.469 3.531q0 1.688 1 3h-4.5q-0.625 0-1.063 0.438t-0.438 1.063v7q0 0.625 0.438 1.063t1.063 0.438h0.5v7q0 1.25 0.875 2.125t2.125 0.875h22q1.25 0 2.125-0.875t0.875-2.125v-7h0.5q0.625 0 1.063-0.438t0.438-1.063v-7q0-0.625-0.438-1.063t-1.063-0.438zM22 4q1.25 0 2.125 0.875t0.875 2.125-0.875 2.125-2.125 0.875h-5q1-3.688 2.5-5.063 1.063-0.938 2.5-0.938zM7 7q0-1.25 0.875-2.125t2.156-0.875 2.219 0.75q1.75 1.375 2.75 5.25h-5q-1.25 0-2.125-0.875t-0.875-2.125zM2 18v-6h10v6h-10zM5 28q-0.438 0-0.719-0.281t-0.281-0.719v-7h8v8h-7zM14 28v-16h4v16h-4zM28 27q0 0.438-0.281 0.719t-0.719 0.281h-7v-8h8v7zM30 18h-10v-6h10v6z"></path>
</svg>
